# xmcd
#
# Track frame offsets:
#	150
#	16585
#	29742
#	45060
#	58457
#	74382
#	93952
#	105905
#	124900
#	139702
#	155930
#	167010
#	180965
#	192522
#	205787
#	223672
#	240402
#	253752
#
# Disc length: 3684 seconds
#
# Revision: 1
# Processed by: cddbd v1.5.1PL2 Copyright (c) Steve Scherf et al.
# Submitted via: audiograbber 1.83.01
#
DISCID=f80e6212
DTITLE=Various Artist - Essential Country Collection - Volume 1
DYEAR=1900
DGENRE=Country
TTITLE0=Toni Joe White - Rainy night in Georgia
TTITLE1=Glen Campbell - Gentle on my mind
TTITLE2=Billy Ray Cyrus - Achy Breaky Heart
TTITLE3=Carly Simon - The right thing to do
TTITLE4=Kenny Rogers - Lucille
TTITLE5=Mac Davies - Its hard to be humble
TTITLE6=Tammy Wynette - Stand by your man
TTITLE7=Kris Kristofferson - Me and Bobby McGee
TTITLE8=Olivia Newton-John - Country roads (Take me home)
TTITLE9=Foster&Allen - Maggie
TTITLE10=Willy Nelson - On the road again
TTITLE11=Helen Reddy - Delta Dawn
TTITLE12=Billy Joe Royal - Down in the Boondocks
TTITLE13=Charlie Rich - Behind closed doors
TTITLE14=Billie Swan - I can help
TTITLE15=Johhny Cash - A boy named Sue
TTITLE16=Geraldine - Have I told you lately
TTITLE17=Tommy Dell - Teddy bear
EXTD=
EXTT0=
EXTT1=
EXTT2=
EXTT3=
EXTT4=
EXTT5=
EXTT6=
EXTT7=
EXTT8=
EXTT9=
EXTT10=
EXTT11=
EXTT12=
EXTT13=
EXTT14=
EXTT15=
EXTT16=
EXTT17=
PLAYORDER=
